<svg xmlns="http://www.w3.org/2000/svg" viewBox="0 0 106 31"><path d="M17.413 14.04c-.56-5.84-5.6-7-8.52-7-4.6 0-8.6 2.92-8.6 7.52 0 3 2.4 4.88 5.28 5.8 4.24 1.64 5.88 1.84 5.88 3.36 0 1.08-1.2 1.72-2.32 1.72-.28 0-2.24 0-2.52-2.04h-6.6c.6 5.84 5.68 7.36 9.04 7.36 4.92 0 9.04-2.88 9.04-7.76 0-4.8-4-5.92-7.76-6.96-1.76-.52-3.4-1.2-3.4-2.2 0-.6.48-1.48 1.88-1.48 1.96 0 2.04 1.2 2.08 1.68h6.52zm2.222 15.96h6.64v-29.6h-6.64v29.6zm9.662-24.56h6.64v-5.04h-6.64v5.04zm0 24.56h6.64v-22.2h-6.64v22.2zm32.782-29.6h-6.64v9.28c-.72-.72-2.6-2.64-6.52-2.64-5.64 0-11 4.28-11 11.8 0 6.68 4.4 11.88 11.12 11.88 4.48 0 6.08-2.2 6.72-3.12v2.4h6.32v-29.6zm-17.52 18.4c0-2.56 1.8-5.56 5.64-5.56 1.56 0 2.96.56 3.96 1.56 1 .96 1.64 2.32 1.64 3.92.08 1.64-.52 3.08-1.56 4.12s-2.52 1.68-4.12 1.68c-3.12 0-5.56-2.28-5.56-5.68v-.04zm42.502 2.4c.52-4.08-.32-7.64-3.12-10.64-2.08-2.2-5-3.52-8.4-3.52-6.76 0-11.64 5.72-11.64 11.92 0 6.6 5.4 11.76 11.76 11.76 2.28 0 4.48-.68 6.32-2 1.88-1.28 3.44-3.2 4.52-5.68h-6.8c-.8 1.16-1.92 2.08-4.04 2.08-2.6 0-4.84-1.56-5.12-3.92h16.52zm-16.44-5.04c.16-1.04 1.52-3.52 4.96-3.52s4.8 2.48 4.96 3.52h-9.92zm34.502-2.12c-.56-5.84-5.6-7-8.52-7-4.6 0-8.6 2.92-8.6 7.52 0 3 2.4 4.88 5.28 5.8 4.24 1.64 5.88 1.84 5.88 3.36 0 1.08-1.2 1.72-2.32 1.72-.28 0-2.24 0-2.52-2.04h-6.6c.6 5.84 5.68 7.36 9.04 7.36 4.92 0 9.04-2.88 9.04-7.76 0-4.8-4-5.92-7.76-6.96-1.76-.52-3.4-1.2-3.4-2.2 0-.6.48-1.48 1.88-1.48 1.96 0 2.04 1.2 2.08 1.68h6.52z" /></svg>